/* XPM */
static const char * const H323Phone_xpm[] = {
/* columns rows colors chars-per-pixel */
"32 32 14 1",
"  c opaque",
". c #220000",
"X c gray20",
"o c #444444",
"O c #555555",
"+ c gray40",
"@ c #777777",
"# c #0000cc",
"$ c #0099cc",
"% c gray60",
"& c #a0a0a4",
"* c #99cccc",
"= c gray80",
"- c None",
/* pixels */
"----=@o...O%=------------------.",
"---@o..++X..o@-----------------O",
"--o..$*&**@+..+-------------=O.-",
"-o..@$@o..#o+..o--------------O-",
"@.X.X+......o+#.o--------------.",
"o.$X......X..o.#.o-------------O",
"-oo$X.....+o....#.o---------=O.-",
"-=oo+X....o......#.o----------O-",
"--&o..X...o.......#.o----------.",
"---&o..X.o.--.O....#.o---------O",
"----&o..X.----.O....#.o-----=O.-",
"-----=o..------.O....#.o------O-",
"-------&--------.O....#.o------.",
"-----------------.O....#.o-----O",
"------------------.O....#.o-=O.-",
"-------------------...##.#.o--O-",
"--------------------..Xo#.#.o--.",
"---------------------..oo#.#.+-O",
"----------------------..oO#.#.@O",
"-----------------------..+O#.#oO",
"-----------------------..@+O#...",
"----------------------o.+*@+oX..",
"---------------------o.@$+.XXX..",
"- - ---   -  --   --oX.XO.....X.",
"- - ----- --- --- -&.$X......oX.",
"- - ----- --- --- --oo$X.....+Xo",
"-   ----  -- ---  --=oo+X....#X@",
"- - ----- - ----- ---&o..X...#o=",
"- - - --- - ----- ----&o..X.#.@-",
"- - - -   -   -   -----&o..X.o--",
"------------------------=o..o---",
"--------------------------o@----"
};
