/* XPM */
static const char * const AppIcon_xpm[] = {
/* columns rows colors chars-per-pixel */
"64 64 17 1",
"  c opaque",
". c #313173",
"X c #4a5284",
"o c #6b6b84",
"O c #6b6b9c",
"+ c #8c8ca5",
"@ c #8484bd",
"# c #848cb5",
"$ c #8484c6",
"% c #a5a5c6",
"& c #bdbdd6",
"* c #bdbdde",
"= c #ceced6",
"- c #d6d6ef",
"; c #efefff",
": c white",
"> c None",
/* pixels */
">>>>>>>>>>>>>>>>>>>>>>>>>>>>>>>>>>>>>>>>>>>>>>>>>>>>>>>>>>>>>>>>",
">>>>>>>>>>>>>>>>>>>>>>>>>>>>>>>>>>>>>>>>>>>>>>>>>>>>>>>>>>>>>>>>",
">>>>>>>>>>>>>>>>>>>>>>>>>>>>>>>>>>>>>>>>>>>>>>>>>>>>>>>>>>>>>>>>",
">>>>>>>>>>>>>>>>>>>>>>>>>>>>>>>>>>>>>>>>>>>>>>>>>>*>>>>>>>>>>>>>",
">>>>>>>>>>>>>-=>>>>>>>>>>>>>>>>>>>>>>>>%->>>>>>>>>&&;>>>>>>>>>>>",
">>>>>>>>>>>>&&&>>>>>>>>$$>>>>>>>>>>>>>>%$$->>>>>>>&&&->>>>>>>>>>",
">>>>>>>>>>>&&&&>>>>>>>@$$>>>>>>>>>>>>>>%@$@->>>>>>&&*&*>>>>>>>>>",
">>>>>>>>>>-&&&&>>>>>>%@$@>>>>>>>>>>>>>>%@@$+;>>>>;&&&*&;>>>>>>>>",
">>>>>>>>>-&&&&&>>>>>#@@@$>>>>>>>>>>>>>>%@$@@#->>>=&&&*&&;>>>>>>>",
">>>>>>>>-&&&&**;>>>@@@@@$>>>>>>>>>>>>>>%@@$@@#=>>&&&&&&&&>>>>>>>",
">>>>>>>>&&&&&*&=>>@@@@@$$>>>>>>>>>>>>>>%@$@$$@#&>&&*&*&&*->>>>>>",
">>>>>>>-&&&&&*&&>@@@$@@@$>>>>>>>>>>>>>>%$@@@@@$#=&&&&*&**&;>>>>>",
">>>>>>>&&&&*&**&%$$@@@$$$>>>>>>>>>>>>>>%@@$$$@@$#&&*&*&&&&&>>>>>",
">>>>>>&&&&&*&*&%$$@@$@@@$>>>>>>>>>>>>>>%@$@@@@$$@#&&&*&&&&&=>>>>",
">>>>>>&&&&&&*&*$@$$$$$@@@>>>>>>>>>>>>>>+$$$$$$$@@$*&&&*&&&&&>>>>",
">>>>>*&****&&&*$$$$$$$@$@>>>>>>>>>>>>>>%@@@@$$$@@@%&*&&&*&&&->>>",
">>>>>&*&***&**%$$@@@@@$$@>>>>>>>>>>>>>>%@@@$@@@@@@@*&&*&&&&&&>>>",
">>>>*&&*&&&&&*@@$$$@@@@#=>>>>>>>>>>>>>>>;+#@@@$$$@@%&*&&*&&&&->>",
">>>>&**&**&&&-@@@@@@@@->>>>>>>>>>>>>>>>>>>>@@@@@$@$$*&&&&&&&*&>>",
">>>;&&&&***&;+@$$$$$+;>>>>>>>>>>>>>>>>>>>>>>#$$@@@$@;&&&*&&**&>>",
">>>*&&*&**&>>@$@@@@+>>>>>>>>>>>>>>>>>>>>>>>>>*@$@@@$$>&&*&&&&&->",
">>>&**&&*&*>-@@@@$@;>>>>>>>>>>>>>>>>>>>>>>>>>>$@@$$@@>;*&&&&&*&>",
">>>&**&&*&>>%@$$$$;>>>>>>>>>>>>>>>>>>>>>>>>>>>>@$@$$$>>;&&&&&&&>",
">>;&&&&&*>>>#@@@@;>>>>>>>>>>>>>>>>>>>>>>>>>>>>>>@@$@$->>=&&&&&&>",
">>-&&&&&->>;$$@$%>>>>>>>>>>>>>>>>>>>>>>>>>>>>>>>;$@@@$>>>&&&*&*-",
">>=&*&&*>>>=@$$@>>>>>>>>>>>>>>>>>>>>>>>>>>>>>>>>>%@$$@>>>&&&*&&-",
">>*&&&&&>>>%$@@=>>>>>>>>>>>>>>>>>>>>>>>>>>>>>>>>>;@@$@>>>;*&*&*=",
">>*&*&*&>>>+@$$>>>>>>>>>>>>>>>>>>>>>>>>>>>>>>>>>>>@@$@;>>>&&*&&=",
">>**@OO=>>>+@@@>>>>>>>>>>>>>>>>>>>>>>>>>>>>>>>>>>>+$$$;>>>&*&&&&",
">>X.%&&X*>>#@@@>>>>>>>>>>>>>>>>>>>>>;;>;>>;;;>>>>>+@@@->>>=*&**&",
">X.&**&>.%>+$$#>>>>>>>>>>>>>>>>>>>>>=.O>>>>.o>>>>;-@@@*;;>;&**%&",
"*.%&*&&>X.;#$$&>>>>>>>>>>>>>>>>>>>>>>.%>>>>.=>>-...$$@...%;&#...",
"..-&&&&>=.O#$X%O.*>>>>O.O>>>*-;XO>>>>.%>>>>.=>>+>>.@@X*>>.;*#*&.",
"..;&*&&>>..OX.#o..%>>X>>X.>&.%o%.X>>>.%>>>>.=>>>>>.$$O*>>.;&***#",
"..:&&&&;>..@#.O>>..>-.>>-.*>X=>>o.>>>.@----.=>>>>>-@@@*>>.=&&**o",
"..:&&&&->..##.@>>X.>@.ooo.#>.->>O.>>>.......=>>>>+O$@@->>X-&&&XX",
"..:-*&*&;.X#@.#>>%.>XX>>>>>>.=>>O.>>>.%>>>>.=>>>>-.O@$;>&:&***%.",
"X.;;&&&&&.*+#.@>>&.>X.>>>>>>.->>+.>>>.%>>>>.=>>>>>XX$@>>o-&*&&;-",
";.o:&*&&..>&#.@>>$.>$.>>>>%>.->>#.>>>.%>>>>.=>>>>>oX$@>X:&&&&&::",
">&.-;*&&.;>-#.O=>.%>>..&&.>>.=>>O.>>>.%>>>>.=>>%>>.$$@.=&OO&#=:%",
">>-.XOX.*&>>@..o.+>>>;...;>&.X-=..+>o..=>>%..=>...@@@.....&*...&",
">>>>>;*&&*&;O.#$%>>>>>>>>>>>>>>>>>>>>>>>>>>>>>>>;@$@@;:&&&*&=>>>",
">>>>>>&&&&*&#.@@#>>>>>>>>>>>>>>>>>>>>>>>>>>>>>>>%@@@@:&&&&&&;>>>",
">>>>>>-&*&*&%.#$$#>>>>>>>>>>>>>>>>>>>>>>>>>>>>>-@@$$@*&&&&&&>>>>",
">>>>>>>&&&&&O.O@$@#>>>>>>>>>>>>>>>>>>>>>>>>>>>-@@$@@%&**&&&>>>>>",
">>>>>>>>&&***#$@$@$@>>>>>>>>>>>>>>>>>>>>>>>>>-@@@$$@*&&&&&;>>>>>",
">>>>>>>>&&&&&&@$$@@@@&&*>>>>>>>>>>>>>>>>;;--$@$$$$@$&&***->>>>>>",
">>>>>>>>>&&*&*#$@@@$$@%&;>>>>>>>>>>>>>>>&&*@$@@@@@@*&&&&%>>>>>>>",
">>>>>>>>>>=&**&$@$$@@@@@*>>>>>>>>>>>>>>>&@@$@@$$$$%*&**&>>>>>>>>",
">>>>>>>>>>>&*&*@@@$@$$$$#>>>>>>>>>>>>>>=#@$@@$@@$@*&*&&->>>>>>>>",
">>>>>>>>>>>>=&*$$$$@$@@@@>>>>>>>>>>>>>>%$$$$$$@@@@*&*&;>>>>>>>>>",
">>>>>>>>>>>>>-**$$@@$$$@@>>>>>>>>>>>>>>+@@@@@@$@@%*&*>>>>>>>>>>>",
">>>>>>>>>>>>>>>**$$@@$@$@->>>>>>>>>>>>>+@$$$$$@@@&&;>>>>>>>>>>>>",
">>>>>>>>>>>>>>>>;%@$@@@@@*>>>>>>>>>>>>;#@@@@@$@@**>>>>>>>>>>>>>>",
">>>>>>>>>>>>>>>>>>*@@$@@@*>>>>>>>>>>>>&@@@$$$$@=>>>>>>>>>>>>>>>>",
">>>>>>>>>>>>>>>>>>>*$$$@@*;>>>>>>>>>>>&@$@@@@#>>>>>>>>>>>>>>>>>>",
">>>>>>>>>>>>>>>>>>>>#$$$@-->>>>>>>>>>>&%$$@$#->>>>>>>>>>>>>>>>>>",
">>>>>>>>>>>>>>>>>>>>;%@@$>>>>>>>>>>>>>>%$$$+>>>>>>>>>>>>>>>>>>>>",
">>>>>>>>>>>>>>>>>>>>>>%#$>>>>>>>>>>>>>>%@$+>>>>>>>>>>>>>>>>>>>>>",
">>>>>>>>>>>>>>>>>>>>>>>>+>>>>>>>>>>>>>>+#->>>>>>>>>>>>>>>>>>>>>>",
">>>>>>>>>>>>>>>>>>>>>>>>>>>>>>>>>>>>>>>;>>>>>>>>>>>>>>>>>>>>>>>>",
">>>>>>>>>>>>>>>>>>>>>>>>>>>>>>>>>>>>>>>>>>>>>>>>>>>>>>>>>>>>>>>>",
">>>>>>>>>>>>>>>>>>>>>>>>>>>>>>>>>>>>>>>>>>>>>>>>>>>>>>>>>>>>>>>>",
">>>>>>>>>>>>>>>>>>>>>>>>>>>>>>>>>>>>>>>>>>>>>>>>>>>>>>>>>>>>>>>>"
};
