/* XPM */
static const char * const SmallPhone_xpm[] = {
/* columns rows colors chars-per-pixel */
"16 16 13 1",
"  c opaque",
". c #330000",
"X c gray20",
"o c gray26",
"O c #555555",
"+ c gray40",
"@ c #777777",
"# c #0000cc",
"$ c #0099cc",
"% c #a0a0a4",
"& c #99cccc",
"* c gray80",
"= c None",
/* pixels */
"=@.+X.@========O",
"o.$o.o.o========",
".X....o#o======O",
"*oX.....#o======",
"=%.Xo=...#o====O",
"==*.===...#o====",
"========...#o==O",
"=========..##o==",
"==========.o##+O",
"===========.+##O",
"===========.&+X.",
"==========XX....",
"==========oX..+o",
"==========%.X.#*",
"===========%.Xo=",
"=============@=="
};
